<svg id="Capa_1" enable-background="new 0 0 510 510" height="512" viewBox="0 0 510 510" width="512" xmlns="http://www.w3.org/2000/svg" xmlns:xlink="http://www.w3.org/1999/xlink"><linearGradient id="SVGID_1_" gradientUnits="userSpaceOnUse" x1="117.907" x2="404.713" y1="69.213" y2="356.019"><stop offset="0" stop-color="#edf5ff"/><stop offset="1" stop-color="#d5e8fe"/></linearGradient><linearGradient id="SVGID_2_" gradientUnits="userSpaceOnUse" x1="251.442" x2="259.282" y1="16.586" y2="136.43"><stop offset="0" stop-color="#b5dbff"/><stop offset="1" stop-color="#48b2e3"/></linearGradient><linearGradient id="SVGID_3_" gradientUnits="userSpaceOnUse" x1="32.241" x2="46.622" y1="58.926" y2="69.883"><stop offset="0" stop-color="#ff637b"/><stop offset="1" stop-color="#e63950"/></linearGradient><linearGradient id="SVGID_4_" gradientUnits="userSpaceOnUse" x1="72.372" x2="86.753" y1="58.926" y2="69.883"><stop offset="0" stop-color="#ffda2d"/><stop offset="1" stop-color="#fdbf00"/></linearGradient><linearGradient id="SVGID_5_" gradientUnits="userSpaceOnUse" x1="108.358" x2="142.441" y1="53.948" y2="88.031"><stop offset="0" stop-color="#b9dd39"/><stop offset="1" stop-color="#0b799d"/></linearGradient><linearGradient id="SVGID_6_" gradientUnits="userSpaceOnUse" x1="255" x2="255" y1="343.483" y2="442.478"><stop offset="0" stop-color="#b5dbff" stop-opacity="0"/><stop offset=".2428" stop-color="#93cef6" stop-opacity=".243"/><stop offset=".5763" stop-color="#6abfec" stop-opacity=".576"/><stop offset=".8403" stop-color="#51b5e5" stop-opacity=".84"/><stop offset="1" stop-color="#48b2e3"/></linearGradient><linearGradient id="SVGID_7_" gradientUnits="userSpaceOnUse" x1="409.512" x2="339.825" y1="410.125" y2="340.438"><stop offset="0" stop-color="#b5dbff" stop-opacity="0"/><stop offset=".1734" stop-color="#8fc5e9" stop-opacity=".173"/><stop offset=".4541" stop-color="#56a4c8" stop-opacity=".454"/><stop offset=".6955" stop-color="#2d8db1" stop-opacity=".696"/><stop offset=".8853" stop-color="#147ea2" stop-opacity=".885"/><stop offset="1" stop-color="#0b799d"/></linearGradient><linearGradient id="SVGID_8_" gradientUnits="userSpaceOnUse" x1="199.599" x2="314.407" y1="313.184" y2="427.991"><stop offset="0" stop-color="#b9dd39"/><stop offset="1" stop-color="#90cc1c"/></linearGradient><linearGradient id="SVGID_9_" gradientUnits="userSpaceOnUse" x1="363.266" x2="320.574" y1="438.292" y2="395.6"><stop offset="0" stop-color="#6b0" stop-opacity="0"/><stop offset="1" stop-color="#6b0"/></linearGradient><linearGradient id="SVGID_10_" gradientUnits="userSpaceOnUse" x1="244.517" x2="363.427" y1="280.983" y2="399.893"><stop offset="0" stop-color="#0b799d"/><stop offset="1" stop-color="#07485e"/></linearGradient><g><g><g><path d="m490.588 390.309h-471.176c-10.721 0-19.412-8.691-19.412-19.412v-329.182c0-10.721 8.691-19.412 19.412-19.412h471.176c10.721 0 19.412 8.691 19.412 19.412v329.182c0 10.721-8.691 19.412-19.412 19.412z" fill="url(#SVGID_1_)"/><path d="m510 100.878h-510v-59.163c0-10.721 8.691-19.412 19.412-19.412h471.176c10.721 0 19.412 8.691 19.412 19.412z" fill="url(#SVGID_2_)"/><g><path d="m40.853 77.328h-10.229c-5.867 0-10.623-4.756-10.623-10.623v-10.229c0-5.867 4.756-10.623 10.623-10.623h10.229c5.867 0 10.623 4.756 10.623 10.623v10.229c0 5.867-4.756 10.623-10.623 10.623z" fill="url(#SVGID_3_)"/><path d="m80.984 77.328h-10.23c-5.867 0-10.623-4.756-10.623-10.623v-10.229c0-5.867 4.756-10.623 10.623-10.623h10.229c5.867 0 10.623 4.756 10.623 10.623v10.229c.001 5.867-4.755 10.623-10.622 10.623z" fill="url(#SVGID_4_)"/><path d="m121.115 77.328h-10.229c-5.867 0-10.623-4.756-10.623-10.623v-10.229c0-5.867 4.756-10.623 10.623-10.623h10.229c5.867 0 10.623 4.756 10.623 10.623v10.229c0 5.867-4.756 10.623-10.623 10.623z" fill="url(#SVGID_5_)"/></g><path d="m0 300.799v70.099c0 10.721 8.691 19.412 19.412 19.412h471.176c10.721 0 19.412-8.691 19.412-19.412v-70.099z" fill="url(#SVGID_6_)"/></g><g fill="#b5dbff"><path d="m166.113 307.684h-104.397c-7.252 0-13.131-5.879-13.131-13.131v-126.207c0-7.252 5.879-13.131 13.131-13.131h104.397c7.252 0 13.131 5.879 13.131 13.131v126.206c.001 7.252-5.878 13.132-13.131 13.132z"/><g><g><path d="m286.513 193.215h-71.598c-5.247 0-9.5-4.253-9.5-9.5v-19c0-5.247 4.253-9.5 9.5-9.5h71.598c5.247 0 9.5 4.253 9.5 9.5v19c0 5.246-4.253 9.5-9.5 9.5z"/><path d="m451.915 193.215h-125c-5.247 0-9.5-4.253-9.5-9.5v-19c0-5.247 4.253-9.5 9.5-9.5h125c5.247 0 9.5 4.253 9.5 9.5v19c0 5.246-4.253 9.5-9.5 9.5z"/></g><g><path d="m380.317 250.449h71.598c5.247 0 9.5-4.253 9.5-9.5v-19c0-5.247-4.253-9.5-9.5-9.5h-71.598c-5.247 0-9.5 4.253-9.5 9.5v19c0 5.247 4.253 9.5 9.5 9.5z"/><path d="m214.915 250.449h125c5.247 0 9.5-4.253 9.5-9.5v-19c0-5.247-4.253-9.5-9.5-9.5h-125c-5.247 0-9.5 4.253-9.5 9.5v19c0 5.247 4.253 9.5 9.5 9.5z"/></g><g><path d="m286.513 307.684h-71.598c-5.247 0-9.5-4.253-9.5-9.5v-19c0-5.247 4.253-9.5 9.5-9.5h71.598c5.247 0 9.5 4.253 9.5 9.5v19c0 5.246-4.253 9.5-9.5 9.5z"/><path d="m451.915 307.684h-125c-5.247 0-9.5-4.253-9.5-9.5v-19c0-5.247 4.253-9.5 9.5-9.5h125c5.247 0 9.5 4.253 9.5 9.5v19c0 5.246-4.253 9.5-9.5 9.5z"/></g></g></g></g><path d="m508.47 378.463c-2.95 6.96-9.85 11.85-17.88 11.85h-231.53c.4-.31.74-.6.99-.85l92.11-92.1 20.37-20.37c9.01-9.01 23.63-10.86 32.64-1.85z" fill="url(#SVGID_7_)"/><circle cx="255" cy="368.585" fill="url(#SVGID_8_)" r="119.112"/><path d="m351.186 298.304-91.135 91.135c-1.096 1.096-4.195 3.175-5.051 3.175s-2.106-.23-3.203-1.327l-43.113-43.112c-9.015-9.014-22.707-9.014-31.722 0-9.015 9.015-9.939 21.783-.924 30.798l105.689 105.687c52.915-12.131 92.386-59.505 92.386-116.1-.001-26.276-8.516-50.559-22.927-70.256z" fill="url(#SVGID_9_)"/><path d="m255 436.958c-13.542 0-26.274-5.274-35.849-14.85l-43.112-43.112c-9.015-9.015-9.015-23.631 0-32.645 9.014-9.014 23.63-9.014 32.645 0l43.113 43.112c1.097 1.097 2.348 1.327 3.203 1.327s2.106-.23 3.203-1.327l114.32-114.32c9.015-9.014 23.631-9.014 32.645 0 9.015 9.015 9.015 23.631 0 32.645l-114.32 114.32c-9.574 9.576-22.306 14.85-35.848 14.85z" fill="url(#SVGID_10_)"/></g></svg>