<svg id="Capa_1" enable-background="new 0 0 512.025 512.025" height="512" viewBox="0 0 512.025 512.025" width="512" xmlns="http://www.w3.org/2000/svg"><g><g><g><path d="m459.809 504.525h-362.032c-11.777 0-21.323-9.547-21.323-21.323v-84.79c0-11.777 9.547-21.323 21.323-21.323h362.032c11.777 0 21.323 9.547 21.323 21.323v84.79c0 11.777-9.547 21.323-21.323 21.323z" fill="#b3dafe"/><g fill="#eaf6ff"><circle cx="321.968" cy="440.807" r="14.501"/><circle cx="379.913" cy="440.807" r="14.501"/><circle cx="437.858" cy="440.807" r="14.501"/></g><path d="m134.17 415.669c.009-10.265 8.332-18.58 18.597-18.58h307.042c7.356 0 14.263-1.941 20.253-5.324-2.795-8.519-10.799-14.677-20.253-14.677h-304.356-57.676c-11.777 0-21.323 9.547-21.323 21.323v84.791c0 11.776 9.547 21.323 21.323 21.323h57.676c-11.777 0-21.323-9.547-21.323-21.323 0 0 .019-42.218.04-67.533z" fill="#8ac9fe"/><path d="m459.809 377.088h-362.032c-11.777 0-21.323-9.547-21.323-21.323v-84.79c0-11.777 9.547-21.323 21.323-21.323h362.032c11.777 0 21.323 9.547 21.323 21.323v84.79c0 11.777-9.547 21.323-21.323 21.323z" fill="#b3dafe"/><path d="m459.809 271.773c7.563 0 14.653-2.052 20.757-5.614-2.186-9.453-10.639-16.508-20.757-16.508h-362.032c-11.777 0-21.323 9.547-21.323 21.323v84.79c0 11.776 9.547 21.323 21.323 21.323h51.047c-11.777 0-21.323-9.547-21.323-21.323v-64.038c0-11.02 8.933-19.953 19.953-19.953z" fill="#8ac9fe"/><path d="m460.239 251.773h-362.032c-11.777 0-21.323-9.547-21.323-21.323v-84.79c0-11.777 9.547-21.323 21.323-21.323h362.032c11.777 0 21.323 9.547 21.323 21.323v84.79c0 11.776-9.547 21.323-21.323 21.323z" fill="#b3dafe"/><path d="m134.13 230.45v-84.79c0-11.777 9.547-21.323 21.323-21.323h-57.676c-11.777 0-21.323 9.547-21.323 21.323v84.79c0 11.777 9.547 21.323 21.323 21.323h57.676c-11.777 0-21.323-9.547-21.323-21.323z" fill="#8ac9fe"/><g fill="#eaf6ff"><circle cx="321.968" cy="313.37" r="14.501"/><circle cx="379.913" cy="313.37" r="14.501"/><circle cx="437.858" cy="313.37" r="14.501"/><circle cx="321.968" cy="185.933" r="14.501"/><circle cx="379.913" cy="185.933" r="14.501"/><circle cx="437.858" cy="185.933" r="14.501"/></g><path d="m98.207 124.336c-11.777 0-21.323 9.547-21.323 21.323v72.341c16.807 8.732 35.885 13.675 56.097 13.675 62.327 0 113.889-46.949 121.194-107.339z" fill="#8ac9fe"/><circle cx="132.981" cy="109.587" fill="#f9f7f8" r="102.087"/><path d="m164.19 158.452h-62.419c-13.269 0-24.026-10.757-24.026-24.026v-33.341c0-6.305 5.111-11.416 11.416-11.416h87.639c6.305 0 11.416 5.111 11.416 11.416v33.341c0 13.27-10.757 24.026-24.026 24.026z" fill="#f79595"/></g></g><g><path d="m343.969 440.807c0-12.132-9.869-22.001-22.001-22.001s-22.001 9.869-22.001 22.001 9.869 22.001 22.001 22.001 22.001-9.87 22.001-22.001zm-29.002 0c0-3.86 3.141-7.001 7.001-7.001s7.001 3.141 7.001 7.001-3.141 7.001-7.001 7.001-7.001-3.141-7.001-7.001z"/><path d="m401.914 440.807c0-12.132-9.869-22.001-22.001-22.001s-22.001 9.869-22.001 22.001 9.869 22.001 22.001 22.001 22.001-9.87 22.001-22.001zm-29.002 0c0-3.86 3.141-7.001 7.001-7.001s7.001 3.141 7.001 7.001-3.141 7.001-7.001 7.001-7.001-3.141-7.001-7.001z"/><path d="m459.859 440.807c0-12.132-9.869-22.001-22.001-22.001s-22.001 9.869-22.001 22.001 9.869 22.001 22.001 22.001 22.001-9.87 22.001-22.001zm-29.002 0c0-3.86 3.141-7.001 7.001-7.001s7.001 3.141 7.001 7.001-3.141 7.001-7.001 7.001-7.001-3.141-7.001-7.001z"/><path d="m266.127 429.304c4.142 0 7.5-3.357 7.5-7.5s-3.358-7.5-7.5-7.5h-26.059c-4.142 0-7.5 3.357-7.5 7.5s3.358 7.5 7.5 7.5z"/><path d="m110.305 429.304h101.045c4.142 0 7.5-3.357 7.5-7.5s-3.358-7.5-7.5-7.5h-101.045c-4.142 0-7.5 3.357-7.5 7.5s3.358 7.5 7.5 7.5z"/><path d="m110.305 467.311h155.822c4.142 0 7.5-3.357 7.5-7.5s-3.358-7.5-7.5-7.5h-155.822c-4.142 0-7.5 3.357-7.5 7.5s3.358 7.5 7.5 7.5z"/><path d="m321.968 335.371c12.132 0 22.001-9.869 22.001-22.001s-9.869-22.001-22.001-22.001-22.001 9.869-22.001 22.001 9.869 22.001 22.001 22.001zm0-29.002c3.86 0 7.001 3.141 7.001 7.001s-3.141 7.001-7.001 7.001-7.001-3.141-7.001-7.001 3.14-7.001 7.001-7.001z"/><path d="m379.913 335.371c12.132 0 22.001-9.869 22.001-22.001s-9.869-22.001-22.001-22.001-22.001 9.869-22.001 22.001 9.869 22.001 22.001 22.001zm0-29.002c3.86 0 7.001 3.141 7.001 7.001s-3.141 7.001-7.001 7.001-7.001-3.141-7.001-7.001 3.141-7.001 7.001-7.001z"/><path d="m437.858 335.371c12.132 0 22.001-9.869 22.001-22.001s-9.869-22.001-22.001-22.001-22.001 9.869-22.001 22.001 9.87 22.001 22.001 22.001zm0-29.002c3.86 0 7.001 3.141 7.001 7.001s-3.141 7.001-7.001 7.001-7.001-3.141-7.001-7.001 3.141-7.001 7.001-7.001z"/><path d="m240.068 301.866h26.059c4.142 0 7.5-3.357 7.5-7.5s-3.358-7.5-7.5-7.5h-26.059c-4.142 0-7.5 3.357-7.5 7.5s3.358 7.5 7.5 7.5z"/><path d="m110.305 301.866h101.045c4.142 0 7.5-3.357 7.5-7.5s-3.358-7.5-7.5-7.5h-101.045c-4.142 0-7.5 3.357-7.5 7.5s3.358 7.5 7.5 7.5z"/><path d="m110.305 339.873h155.822c4.142 0 7.5-3.357 7.5-7.5s-3.358-7.5-7.5-7.5h-155.822c-4.142 0-7.5 3.357-7.5 7.5s3.358 7.5 7.5 7.5z"/><path d="m264.461 129.715h142.915c4.143 0 7.5-3.357 7.5-7.5s-3.357-7.5-7.5-7.5h-142.915c-4.142 0-7.5 3.357-7.5 7.5s3.358 7.5 7.5 7.5z"/><path d="m488.632 228.328v-84.79c0-15.894-12.93-28.823-28.823-28.823h-20.471c-4.143 0-7.5 3.357-7.5 7.5s3.357 7.5 7.5 7.5h20.471c7.622 0 13.823 6.201 13.823 13.823v84.79c0 7.622-6.201 13.823-13.823 13.823h-362.032c-7.513 0-13.572-5.89-13.794-13.407-.122-4.141-3.559-7.372-7.719-7.275-4.14.123-7.397 3.579-7.274 7.719.242 8.18 3.804 15.43 9.376 20.499-5.78 5.275-9.412 12.865-9.412 21.288v84.791c0 8.442 3.648 16.047 9.45 21.323-5.802 5.276-9.449 12.881-9.449 21.322v42.396c0 4.143 3.358 7.5 7.5 7.5s7.5-3.357 7.5-7.5v-42.396c0-7.622 6.201-13.822 13.823-13.822h362.031c7.622 0 13.823 6.2 13.823 13.822v84.791c0 7.622-6.201 13.823-13.823 13.823h-362.032c-7.622 0-13.823-6.201-13.823-13.823v-10.432c0-4.143-3.358-7.5-7.5-7.5s-7.5 3.357-7.5 7.5v10.433c0 15.894 12.93 28.823 28.823 28.823h362.031c15.894 0 28.823-12.93 28.823-28.823v-84.791c0-8.441-3.648-16.046-9.449-21.322 5.802-5.276 9.449-12.882 9.449-21.323v-84.791c0-8.442-3.648-16.047-9.449-21.323 5.802-5.278 9.45-12.883 9.45-21.325zm-15 42.647v84.791c0 7.622-6.201 13.823-13.823 13.823h-362.032c-7.622 0-13.823-6.201-13.823-13.823v-84.791c0-7.622 6.201-13.823 13.823-13.823h362.031c7.623-.001 13.824 6.201 13.824 13.823z"/><path d="m299.967 185.933c0 12.132 9.869 22.002 22.001 22.002s22.001-9.87 22.001-22.002-9.869-22.001-22.001-22.001-22.001 9.869-22.001 22.001zm29.002 0c0 3.861-3.141 7.002-7.001 7.002s-7.001-3.141-7.001-7.002c0-3.86 3.141-7.001 7.001-7.001s7.001 3.14 7.001 7.001z"/><path d="m357.912 185.933c0 12.132 9.869 22.002 22.001 22.002s22.001-9.87 22.001-22.002-9.869-22.001-22.001-22.001-22.001 9.869-22.001 22.001zm29.002 0c0 3.861-3.141 7.002-7.001 7.002s-7.001-3.141-7.001-7.002c0-3.86 3.141-7.001 7.001-7.001s7.001 3.14 7.001 7.001z"/><path d="m437.858 207.935c12.132 0 22.001-9.87 22.001-22.002s-9.869-22.001-22.001-22.001-22.001 9.869-22.001 22.001 9.87 22.002 22.001 22.002zm0-29.003c3.86 0 7.001 3.141 7.001 7.001 0 3.861-3.141 7.002-7.001 7.002s-7.001-3.141-7.001-7.002 3.141-7.001 7.001-7.001z"/><path d="m251.959 174.43h14.168c4.142 0 7.5-3.357 7.5-7.5s-3.358-7.5-7.5-7.5h-14.168c-4.142 0-7.5 3.357-7.5 7.5s3.358 7.5 7.5 7.5z"/><path d="m266.127 197.437h-41.831c-4.142 0-7.5 3.357-7.5 7.5s3.358 7.5 7.5 7.5h41.831c4.142 0 7.5-3.357 7.5-7.5s-3.358-7.5-7.5-7.5z"/><path d="m242.568 109.587c0-16.444-3.56-32.264-10.58-47.02-1.779-3.741-6.253-5.333-9.995-3.551-3.74 1.779-5.33 6.254-3.55 9.994 6.055 12.728 9.125 26.379 9.125 40.576 0 52.156-42.432 94.588-94.588 94.588-52.155 0-94.587-42.432-94.587-94.588.001-52.154 42.432-94.586 94.587-94.586 26.218 0 50.597 10.483 68.646 29.519 2.849 3.006 7.597 3.132 10.603.282 3.005-2.85 3.132-7.597.282-10.603-20.909-22.052-49.154-34.198-79.531-34.198-60.426 0-109.586 49.16-109.586 109.587s49.16 109.588 109.586 109.588c60.427 0 109.588-49.161 109.588-109.588z"/><path d="m132.98 41.192c-24.32 0-44.483 18.034-47.879 41.427-8.484 1.865-14.856 9.43-14.856 18.466v33.341c0 17.383 14.142 31.525 31.525 31.525h62.419c17.383 0 31.525-14.143 31.525-31.525v-33.341c0-9.034-6.369-16.597-14.849-18.464-3.393-23.395-23.563-41.429-47.885-41.429zm.001 15c15.852 0 29.149 11.101 32.553 25.978h-65.117c3.389-14.855 16.697-25.978 32.564-25.978zm47.735 78.235c0 9.112-7.413 16.525-16.525 16.525h-62.419c-9.112 0-16.525-7.413-16.525-16.525v-33.341c0-2.159 1.757-3.916 3.916-3.916h87.637c2.159 0 3.916 1.757 3.916 3.916z"/></g></g></svg>