<?xml version="1.0" encoding="UTF-8" standalone="no"?>
<!-- Created with Inkscape (http://www.inkscape.org/) -->

<svg
   width="8in"
   height="8in"
   viewBox="0 0 203.2 203.2"
   version="1.1"
   id="svg396"
   xmlns="http://www.w3.org/2000/svg"
   xmlns:svg="http://www.w3.org/2000/svg">
  <defs
     id="defs393" />
  <g
     id="layer1">
    <path
       style="fill:#000000;stroke-width:0.606482"
       d="m 33.495546,202.64395 c -0.223784,-0.22378 -0.406879,-4.70245 -0.406879,-9.95259 v -9.54573 l 3.032419,-0.41704 3.03242,-0.41707 V 165.69013 149.0688 h 3.303953 3.303952 l 0.183318,-3.18405 0.183319,-3.18403 3.153389,-0.18226 3.153407,-0.18225 0.182253,-3.15338 0.182253,-3.15341 3.15205,-0.18221 3.152049,-0.18219 0.18361,-2.85022 0.183593,-2.8502 3.487289,-0.18189 3.487271,-0.18188 v -3.30539 -3.30539 h 3.032402 3.032418 v -3.63889 -3.63891 h 3.287379 3.287378 l 0.397519,-3.7905 c 0.218632,-2.08478 0.308582,-8.02073 0.199892,-13.191006 l -0.197625,-9.400462 -3.33566,-0.303238 -3.335642,-0.303238 -0.181137,-3.121015 c -0.194551,-3.352492 -0.751702,-3.826547 -4.519112,-3.845269 -1.590624,-0.0086 -1.667812,-0.145307 -1.667812,-2.969951 0,-3.292152 -0.531148,-3.685069 -5.00349,-3.701351 l -2.274311,-0.0086 V 71.741938 68.406296 H 55.83177 52.49611 v -3.03242 -3.032409 H 49.190714 45.885336 L 45.703443,58.854196 45.521567,55.36692 42.337537,55.183605 39.153506,55.000291 V 38.354062 21.707492 h -3.03242 -3.032419 V 11.39729 1.0870914 H 103.1374 173.18611 V 11.39729 21.707492 h -3.0324 -3.03241 v 16.678266 16.678265 h -3.33566 -3.33565 v 2.679568 c 0,4.253454 -0.30044,4.59822 -4.00702,4.59822 h -3.27078 v 3.00072 3.000712 l -3.18403,0.183319 -3.18403,0.183318 -0.18331,3.184031 c -0.1806,3.137036 -0.21194,3.184151 -2.12269,3.192309 -4.10209,0.01752 -4.66854,0.462599 -4.66854,3.668116 v 2.928453 l -2.88079,0.184848 c -2.5668,0.164716 -2.89862,0.350113 -3.04436,1.701065 -0.59065,5.475204 -0.524,5.381119 -3.95186,5.579017 l -3.16238,0.182563 -0.18199,10.613423 c -0.10008,5.837405 -0.0155,11.773355 0.1888,13.190995 l 0.37078,2.57755 h 3.29849 3.29849 v 3.63891 3.63889 h 3.0324 3.03242 v 3.33565 3.33566 h 3.33565 3.33565 v 3.0324 3.03242 h 3.33565 3.33565 v 3.30538 3.3054 l 3.4873,0.18189 3.48727,0.18187 0.18331,3.18403 0.18329,3.18405 h 3.30398 3.30396 v 16.60751 16.60756 l 1.36458,0.36569 c 0.75052,0.20114 2.12186,0.36943 3.04744,0.37398 l 1.68284,0.009 -0.16661,9.85533 -0.16661,9.85535 -69.49021,0.15406 c -38.219651,0.0848 -69.673347,-0.0289 -69.897114,-0.25268 z m 124.831734,-12.8643 c 1.70079,-0.36127 1.83119,-0.58824 1.99975,-3.48028 l 0.1803,-3.09381 -3.37393,-0.39656 c -4.17649,-0.49086 -109.104359,-0.49328 -110.383207,-9.7e-4 -1.421802,0.54561 -1.30353,6.70889 0.135861,7.08505 1.651513,0.4316 109.391746,0.32341 111.441146,-0.11195 z m -99.03993,-16.60318 0.183302,-3.18404 3.454568,-0.1809 3.454569,-0.18091 0.184331,3.21331 0.184331,3.21333 2.880791,0.18485 2.88079,0.18486 v -3.67213 -3.67213 h -3.065654 -3.065637 l 0.184863,-2.8808 0.184847,-2.88078 2.847986,-0.18351 2.847984,-0.1835 0.184434,3.21591 0.184418,3.21591 h 3.335642 3.33566 v -3.03239 -3.03242 l -3.487271,-0.18188 -3.487272,-0.18189 v -3.30539 -3.30539 h 3.270753 c 3.706589,0 4.007031,-0.34476 4.007031,-4.59823 v -2.67955 h 3.032416 3.032409 v 3.60719 3.60719 l -3.184033,0.18333 -3.184033,0.18332 v 3.03242 3.03239 l 3.184033,0.18332 3.184033,0.18332 v 2.96902 2.96902 l -3.184033,0.18331 -3.184033,0.18331 v 3.33566 3.33566 l 2.973731,0.18865 c 3.466488,0.2199 3.97817,-0.28615 3.991539,-3.94747 l 0.0082,-2.54586 3.184034,-0.18332 3.184012,-0.18332 0.183327,-3.18403 0.183318,-3.18403 h 3.272278 3.272237 l 0.183308,3.18403 0.183331,3.18403 h 3.03241 3.0324 l 0.18332,-3.18403 0.18332,-3.18403 h 3.30398 3.30395 v 3.03242 3.03241 h -3.33567 -3.33564 v 3.67058 3.67059 l 3.18402,-0.18332 3.18405,-0.1833 0.18329,-3.18405 0.18335,-3.18403 h 3.34205 c 2.81974,0 3.32521,0.16593 3.23413,1.06136 -0.0595,0.58374 -0.0766,2.09841 -0.0382,3.36592 l 0.0699,2.30457 3.48728,-0.1819 3.48727,-0.18187 0.18224,-3.15341 0.18226,-3.1534 3.15341,-0.18225 3.15344,-0.18226 0.18442,-3.21591 0.18441,-3.21591 2.84799,0.1835 2.84799,0.18351 0.18485,2.88078 0.18484,2.8808 h -3.06562 -3.06562 v 3.67213 3.67213 l 2.88077,-0.18486 2.88078,-0.18485 0.18333,-3.18405 0.18331,-3.18403 h 3.27228 3.27228 l 0.18329,3.18403 0.18331,3.18405 h 6.6713 6.67132 v -9.70371 -9.70372 l -3.33565,-0.30325 -3.33567,-0.30324 -0.18186,-3.48727 -0.1819,-3.48727 h -3.30538 -3.3054 v -3.33565 -3.33568 h -3.33564 -3.33566 v -3.33563 -3.33566 h -3.03242 -3.03238 v -3.03242 -3.0324 h -3.30398 -3.30396 l -0.18333,-3.18404 c -0.16643,-2.89105 -0.32283,-3.19907 -1.69951,-3.34759 -5.6002,-0.60415 -5.45832,-0.49815 -5.45832,-4.0776 v -3.27647 l -3.18403,-0.18332 -3.18405,-0.18332 -0.16333,-13.1589 -0.16335,-13.158876 3.19577,-0.183724 3.19576,-0.183714 0.18232,-3.154698 0.18227,-3.154677 3.45661,-0.180966 3.45659,-0.180981 0.18225,-3.15339 0.18228,-3.153406 3.15338,-0.182253 3.15341,-0.182253 0.30322,-3.335642 0.30325,-3.33566 2.84886,-0.183541 2.84886,-0.18356 0.18357,-2.84886 0.18354,-2.848861 3.18403,-0.18332 3.18402,-0.183316 v -3.23408 -3.234073 l 3.33567,-0.416763 3.33563,-0.416761 V 41.981009 28.98528 h -50.3377 -50.338027 v 12.995729 12.995736 l 3.335659,0.416761 3.335642,0.416763 v 3.265769 3.265773 H 61.8463 c 4.101532,0 4.598224,0.365063 4.598224,3.379654 v 2.643385 l 3.003289,0.398413 3.00329,0.398394 0.180741,3.109762 0.180742,3.109763 3.153389,0.182253 3.153407,0.182253 0.182253,3.153406 0.182253,3.15339 3.153401,0.182252 3.153397,0.182255 0.182249,3.153405 0.182249,3.15341 3.335669,0.303238 3.335662,0.303238 0.181984,10.613423 c 0.100089,5.837405 0.01711,11.759605 -0.184208,13.160445 l -0.36619,2.54698 -3.151459,0.18218 -3.151458,0.18219 -0.181873,3.1426 -0.181874,3.14259 -3.153783,0.4994 -3.153766,0.49942 -0.183318,3.18093 -0.183318,3.18092 h -3.303953 -3.303953 v 3.0324 3.03242 h -3.03242 -3.032402 v 3.30538 3.3054 l -3.487288,0.18189 -3.487271,0.18187 -0.182254,3.15341 -0.182253,3.15338 -3.153389,0.18228 -3.153406,0.18225 -0.181893,3.48727 -0.181875,3.48727 H 49.1295 45.824121 v 9.60264 c 0,5.28145 0.181944,9.78459 0.404319,10.00694 0.222377,0.22241 3.210208,0.40435 6.639614,0.40435 h 6.235292 z m 60.5283,-7.12617 v -3.03242 h -3.33564 -3.33566 v -3.33563 -3.33567 h -3.33567 -3.33563 v 3.33567 3.33563 h -3.33565 -3.335679 v -3.36591 -3.36592 l -3.462024,0.18188 -3.462035,0.1819 0.171416,3.18403 0.171406,3.18402 h -3.380605 -3.380625 v -3.33563 -3.33567 h 3.335656 3.335655 v -3.63889 -3.63889 h -3.367339 -3.367349 l 0.183319,-3.18405 0.183295,-3.18403 2.579288,-0.18657 c 2.33058,-0.16866 2.640315,-0.0261 3.212457,1.47884 0.348256,0.91598 0.552167,2.36453 0.453141,3.21899 -0.172711,1.49029 -0.0379,1.56098 3.30723,1.73546 l 3.487268,0.18188 v -3.05112 c 0,-2.70741 0.162472,-3.09191 1.442925,-3.41327 0.7936,-0.19919 2.22642,-0.27262 3.18402,-0.16317 1.64307,0.18775 1.75145,0.37828 1.92444,3.38299 l 0.18331,3.18405 h 3.27225 3.27227 l 0.18332,-3.18405 0.18332,-3.18403 2.57926,-0.18657 c 2.30402,-0.16661 2.64382,-0.0171 3.18404,1.40407 0.33263,0.87484 0.60475,2.39161 0.60475,3.37061 0,1.75321 0.0502,1.77997 3.33566,1.77997 h 3.33565 v 3.63889 3.63889 h -3.33565 -3.33566 v 3.33567 3.33563 h 3.33566 3.33565 v 3.03242 3.03241 h -3.33565 -3.33566 z m -13.46395,-13.19099 -0.1819,-3.48727 -3.18405,-0.18332 -3.184029,-0.18332 v 3.67059 3.67059 h 3.365929 3.36592 z m 13.46395,-0.15166 v -3.63889 h -3.33564 -3.33566 v 3.63889 3.63889 h 3.33566 3.33564 z m 7.27778,6.94285 v -3.36735 l 3.1835,0.18332 3.18348,0.18332 0.20036,3.18403 0.20039,3.18402 h -3.38384 -3.38389 z m -20.62038,-26.89335 v -3.03242 l -3.18402,-0.18329 -3.18405,-0.18332 v -3.03242 -3.0324 l 3.18405,-0.18332 3.18402,-0.18332 v 3.33566 3.33565 l 3.18404,0.18332 3.18401,0.18331 v 2.72916 2.72917 l -3.18401,0.18332 -3.18404,0.18332 z m -6.2277,-24.14009 c -0.14994,-0.2672 -0.24294,-1.71396 -0.20655,-3.21502 l 0.0661,-2.72916 3.21689,-0.18444 3.21686,-0.18445 -0.18445,3.21684 -0.18446,3.21688 -2.82585,0.1826 c -1.55422,0.10045 -2.94855,-0.0361 -3.09859,-0.30325 z m -0.11289,-21.529228 c -0.729542,-4.264873 -0.4171,-4.732107 3.16422,-4.732107 h 3.23685 l -0.18188,-3.487273 -0.1819,-3.48727 -3.33565,-0.303241 c -1.83463,-0.166778 -3.267434,-0.507924 -3.184042,-0.758108 0.08354,-0.250168 0.151663,-1.68298 0.151663,-3.184031 V 68.40664 h -3.335694 -3.335636 v -3.03242 -3.032409 h -3.335665 -3.335659 v -3.335652 -3.335653 h 3.335659 c 1.834617,0 3.303333,0.204689 3.263827,0.454862 -0.03945,0.250174 -0.03945,1.751216 0,3.335652 l 0.07174,2.880791 h 3.335655 3.335635 l 0.07174,-2.880791 c 0.03945,-1.584436 0.03945,-3.085478 0,-3.335652 -0.03945,-0.250173 0.951597,-0.486346 2.202477,-0.52482 4.21766,-0.129729 4.08153,-0.02226 4.27562,-3.375773 0.16763,-2.894988 0.31668,-3.172091 1.89325,-3.518367 0.94124,-0.206732 2.42867,-0.19584 3.30541,0.0242 1.44926,0.363748 1.59403,0.669472 1.59403,3.366746 v 2.966663 H 109.859 c -1.80683,0 -3.37609,0.271286 -3.4873,0.602862 -0.11112,0.331569 -0.10854,1.955694 0.007,3.609159 l 0.20814,3.006302 3.12753,0.181352 3.12749,0.181365 0.30323,3.032402 0.30324,3.03242 3.25784,0.18586 3.25782,0.185877 -0.37037,2.240062 c -0.20367,1.232026 -0.37335,2.581191 -0.37703,2.998154 -0.004,0.504523 -1.02102,0.758108 -3.03908,0.758108 h -3.03242 V 71.742281 68.40662 h -3.33565 -3.33565 v 3.6389 3.638899 h 3.33565 3.33565 v 3.000714 3.000713 l -3.18403,0.183316 -3.18404,0.183319 -0.30323,3.33566 -0.30323,3.335645 -2.84734,0.183492 c -2.79627,0.180185 -2.85349,0.147534 -3.18996,-1.819447 z m 4.87392,-18.681192 c 1.35561,0 1.46662,-0.229522 1.46662,-3.03242 v -3.032409 h -3.33567 -3.335658 v 2.987941 c 0,3.031956 0.787748,3.921236 2.930418,3.30804 0.44422,-0.127101 1.46767,-0.231152 2.27429,-0.231152 z m -9.6017,13.457614 -2.274289,-0.188231 v -2.995801 -2.995801 h 3.335636 3.335645 v 2.96169 c 0,3.289267 -0.359393,3.552316 -4.396992,3.218143 z M 86.459067,72.04554 v -3.03242 h 3.20666 c 3.157588,0 3.20887,0.02903 3.351338,1.898811 0.269968,3.543076 -0.263306,4.16601 -3.566459,4.16601 h -2.991539 z m -6.73825,-4.093769 C 79.684057,67.701604 79.6157,66.405237 79.569154,65.070979 l -0.08468,-2.425921 -3.487271,-0.181889 -3.487271,-0.181891 v -3.575396 -3.5754 l -2.880747,-0.184851 -2.880791,-0.18485 -0.181737,-2.804332 c -0.167637,-2.58604 -0.06132,-2.827348 1.364589,-3.099931 0.850482,-0.162587 2.228606,-0.165163 3.06253,-0.0055 1.365208,0.260974 1.516201,0.578328 1.516201,3.186663 0,3.234529 0.279537,3.465647 4.093819,3.384601 l 2.577602,-0.05477 -5.1e-5,3.487275 -6.9e-5,3.487272 h 3.335654 3.335645 v 3.032417 3.032402 H 82.82018 c -1.667829,0 -3.062549,-0.204684 -3.099373,-0.454852 z M 119.8156,65.37422 v -3.032409 h -3.33564 -3.33566 v -3.335652 -3.335653 h 2.99154 c 3.33424,0 3.93917,0.746447 3.57266,4.408453 l -0.19614,1.959612 3.48727,0.181883 3.48727,0.181891 v 3.002139 3.002156 h -3.33564 -3.33566 z m 7.27673,-6.519682 -9.7e-4,-3.487273 h 3.18513 3.18511 l 0.30323,-3.335653 c 0.2668,-2.934962 0.47457,-3.359908 1.7295,-3.53754 0.78444,-0.111036 2.08081,-0.03759 2.8808,0.163172 1.2915,0.324147 1.45454,0.703635 1.45454,3.38592 v 3.020858 h -3.03244 -3.0324 v 2.679566 c 1.3e-4,4.186027 -0.33188,4.598221 -3.70364,4.598221 h -2.96755 l -9.6e-4,-3.487273 z M 79.787816,52.072483 c 0,-3.359579 0.938386,-4.102867 4.259,-3.373529 1.705033,0.374486 1.805825,0.563174 1.805825,3.380849 v 2.98422 h -3.032409 -3.032416 z m 13.342624,0.03493 c 0,-2.820647 0.08634,-2.973881 1.878667,-3.332341 1.033298,-0.206654 2.534337,-0.211184 3.335645,-0.0101 1.289904,0.323747 1.456969,0.705868 1.456969,3.332343 v 2.966663 H 96.466076 93.13044 v -2.956601 z m 26.68521,-0.0276 c 0,-2.793038 0.11161,-3.008733 1.7416,-3.366748 0.9579,-0.210388 2.45893,-0.202486 3.33566,0.01759 1.44929,0.363751 1.59403,0.669472 1.59403,3.366747 v 2.966663 h -3.33563 -3.33566 V 52.079848 Z M 99.801721,172.7216 v -3.63889 h -3.23456 c -1.779002,0 -3.348282,0.11325 -3.487269,0.25138 -0.138958,0.13827 -0.159223,1.77578 -0.04496,3.6389 l 0.207769,3.38752 h 3.2795 3.279528 V 172.7216 Z M 160.14673,18.371838 V 15.339426 H 103.13738 46.128048 l -0.183422,3.187133 -0.18342,3.18713 57.192744,-0.15472 57.19278,-0.154719 z"
       id="path301" />
  </g>
</svg>
