<svg id="icons" enable-background="new 0 0 64 64" height="512" viewBox="0 0 64 64" width="512" xmlns="http://www.w3.org/2000/svg"><path d="m36 54.995 1 5h-9.99l1-5z" fill="#545c66"/><path d="m46 43.005v7.99h-27.939-.051v-7.99-8c0-1.1.9-2 2-2h23.99c1.101 0 2 .9 2 2z" fill="#5d9cec"/><path d="m46 50.995v2c0 1.1-.899 2-2 2h-8-7.99-8c-1.1 0-2-.9-2-2v-2h.051z" fill="#656d78"/><path d="m49.25 15.015c7.62.131 13.75 6.34 13.75 13.99 0 7.73-6.26 14-14 14h-2.99-.01v-8c0-1.1-.899-2-2-2h-23.99c-1.1 0-2 .9-2 2v8h-.01-6c-6.069 0-11-4.93-11-11 0-6.08 4.931-11 11-11h1.11c1-9.55 9.08-17 18.89-17 7.641 0 14.23 4.51 17.25 11.01z" fill="#e6e9ed"/><path d="m12 44.005c-6.617 0-12-5.383-12-12s5.383-12 12-12c.553 0 1 .447 1 1s-.447 1-1 1c-5.514 0-10 4.486-10 10s4.486 10 10 10c.553 0 1 .447 1 1s-.447 1-1 1z"/><path d="m49 44.005c-.553 0-1-.447-1-1s.447-1 1-1c7.168 0 13-5.832 13-13 0-7.052-5.739-12.878-12.794-12.988-.552-.009-.993-.464-.984-1.016s.488-1.036 1.016-.984c8.14.127 14.762 6.85 14.762 14.988 0 8.271-6.729 15-15 15z"/><path d="m17.999 44.005h-5.999c-.553 0-1-.447-1-1s.447-1 1-1h5.999c.553 0 1 .447 1 1s-.447 1-1 1z"/><path d="m49 44.005h-2.999c-.553 0-1-.447-1-1s.447-1 1-1h2.999c.553 0 1 .447 1 1s-.447 1-1 1z"/><path d="m51 24.005c-.553 0-1-.447-1-1 0-1.285-.136-2.566-.403-3.807-1.77-8.224-9.17-14.193-17.597-14.193-9.925 0-18 8.075-18 18 0 .553-.447 1-1 1s-1-.447-1-1c0-11.028 8.972-20 20-20 9.362 0 17.585 6.633 19.552 15.772.298 1.378.448 2.801.448 4.228 0 .553-.447 1-1 1z"/><path d="m13.104 22.005h-1.104c-.553 0-1-.447-1-1s.447-1 1-1h1.104c.553 0 1 .447 1 1s-.447 1-1 1z"/><path d="m36.001 29.002c-.553 0-1-.447-1-1v-10.002c0-.553.447-1 1-1s1 .447 1 1v10.002c0 .553-.447 1-1 1z"/><path d="m38.001 21c-.256 0-.512-.098-.707-.293l-2-2c-.391-.391-.391-1.023 0-1.414s1.023-.391 1.414 0l2 2c.391.391.391 1.023 0 1.414-.195.195-.451.293-.707.293z"/><path d="m34.001 21c-.256 0-.512-.098-.707-.293-.391-.391-.391-1.023 0-1.414l2-2c.391-.391 1.023-.391 1.414 0s.391 1.023 0 1.414l-2 2c-.195.195-.451.293-.707.293z"/><path d="m27.998 29.002c-.553 0-1-.447-1-1v-10.002c0-.553.447-1 1-1s1 .447 1 1v10.002c0 .553-.447 1-1 1z"/><path d="m27.998 29.002c-.256 0-.512-.098-.707-.293l-2-2c-.391-.391-.391-1.023 0-1.414s1.023-.391 1.414 0l2 2c.391.391.391 1.023 0 1.414-.195.195-.451.293-.707.293z"/><path d="m27.998 29.002c-.256 0-.512-.098-.707-.293-.391-.391-.391-1.023 0-1.414l2-2c.391-.391 1.023-.391 1.414 0s.391 1.023 0 1.414l-2 2c-.195.195-.451.293-.707.293z"/><path d="m32.03 53.995c-.553 0-1.005-.447-1.005-1s.442-1 .994-1h.011c.552 0 1 .447 1 1s-.448 1-1 1z"/><path d="m45.992 51.995h-27.937c-.553 0-1-.447-1-1s.447-1 1-1h27.938c.553 0 1 .447 1 1s-.448 1-1.001 1z"/><path d="m43.992 55.995h-23.984c-1.654 0-3-1.346-3-3v-17.988c0-1.654 1.346-3 3-3h23.984c1.654 0 3 1.346 3 3v17.988c0 1.654-1.346 3-3 3zm-23.984-21.988c-.552 0-1 .448-1 1v17.988c0 .552.448 1 1 1h23.984c.552 0 1-.448 1-1v-17.988c0-.552-.448-1-1-1z"/><path d="m27.002 60.995c-.065 0-.131-.006-.197-.02-.541-.108-.893-.635-.784-1.177l1-5c.108-.543.635-.896 1.177-.784.541.108.893.635.784 1.177l-1 5c-.095.476-.513.804-.98.804z"/><path d="m36.998 60.995c-.467 0-.885-.328-.979-.804l-1-5c-.108-.542.243-1.068.784-1.177.549-.111 1.069.243 1.177.784l1 5c.108.542-.243 1.068-.784 1.177-.067.014-.133.02-.198.02z"/><path d="m39 60.995h-14c-.553 0-1-.447-1-1s.447-1 1-1h14c.553 0 1 .447 1 1s-.447 1-1 1z"/></svg>